# xmcd
#
# Track frame offsets:
#	150
#	35432
#	68911
#	99522
#	133779
#	162774
#	197342
#	231331
#	247085
#
# Disc length: 3520 seconds
#
# Revision: 0
# Processed by: cddbd v1.5.2PL0 Copyright (c) Steve Scherf et al.
# Submitted via: EasyCDDAExtractor 12.0.2.1
#
DISCID=770dbe09
DTITLE=Marc Marberg with Kyau and Albert - Orange Bill - Neo Love
DYEAR=2008
DGENRE=Trance
TTITLE0=Orange Bill (Original Mix)
TTITLE1=Orange Bill (Original Dub)
TTITLE2=Orange Bill (Stoneface and Terminal with Marc Marberg Remix)
TTITLE3=Orange Bill (Ramiro Puente Remix)
TTITLE4=Neo Love (Original Mix)
TTITLE5=Neo Love (TE Intro Mix)
TTITLE6=Neo Love (Giuseppe Ottaviani Remix)
TTITLE7=Orange Bill (Original Edit)
TTITLE8=Neo Love (Original Edit)
EXTD=
EXTT0=
EXTT1=
EXTT2=
EXTT3=
EXTT4=
EXTT5=
EXTT6=
EXTT7=
EXTT8=
PLAYORDER=
